<svg width="170" height="170" viewBox="0 0 170 170" fill="none" xmlns="http://www.w3.org/2000/svg">
<path d="M85 0C38.08 0 0 38.08 0 85C0 131.92 38.08 170 85 170C131.92 170 170 131.92 170 85C170 38.08 131.92 0 85 0ZM85 34C101.405 34 114.75 47.345 114.75 63.75C114.75 80.155 101.405 93.5 85 93.5C68.595 93.5 55.25 80.155 55.25 63.75C55.25 47.345 68.595 34 85 34ZM85 153C67.745 153 47.345 146.03 32.81 128.52C47.6986 116.839 66.0758 110.49 85 110.49C103.924 110.49 122.301 116.839 137.19 128.52C122.655 146.03 102.255 153 85 153Z" fill="white"/>
</svg>
